<?xml version="1.0" encoding="UTF-8"?>
<!DOCTYPE svg PUBLIC "-//W3C//DTD SVG 1.1//EN" "http://www.w3.org/Graphics/SVG/1.1/DTD/svg11.dtd">
<!-- Creator: CorelDRAW 2021 (64-Bit) -->
<svg xmlns="http://www.w3.org/2000/svg" xml:space="preserve" width="318.449mm" height="317.26mm" version="1.1" style="shape-rendering:geometricPrecision; text-rendering:geometricPrecision; image-rendering:optimizeQuality; fill-rule:evenodd; clip-rule:evenodd"
viewBox="0 0 25416.44 25321.56"
 xmlns:xlink="http://www.w3.org/1999/xlink"
 xmlns:xodm="http://www.corel.com/coreldraw/odm/2003">
 <defs>
  <style type="text/css">
   <![CDATA[
    .fil1 {fill:#00FDFD}
    .fil0 {fill:#391969}
    .fil3 {fill:#8BFFFF}
    .fil2 {fill:#FE00FE}
   ]]>
  </style>
 </defs>
 <g id="Layer_x0020_1">
  <metadata id="CorelCorpID_0Corel-Layer"/>
  <g id="_1554483891360">
   <path class="fil0" d="M469.13 16965.42l626.84 -0.53c-55.65,-1379.75 484.14,-2429.23 1822.95,-2488.28 629.85,-110.89 1150.2,236.69 1514.19,510.18 978.33,735.07 1718.95,1658 3247.69,1991.22 171.89,37.47 829.97,113.62 914.56,155.28l1233.66 2.43 716.24 -141.64c257.6,-63.02 444.76,-135.23 674.83,-204.64 107.45,-122.18 322.83,-511.08 419.8,-671.48 487.04,-805.61 1371.03,-2029.48 1980.64,-2750.02 147.17,-173.94 109.02,-154.01 -38.76,-603.36 -266.2,-809.43 -295.89,-864.39 -648.5,-1607.86 -109.25,150.14 -262.95,727.23 -666.77,1026.2 -385.73,285.57 -644.38,451.67 -1253.38,375 -525.84,-16.15 -1658.92,-832.07 -2099.64,-1066.34 -343.99,-182.85 -673.99,-371.07 -1059.49,-516.57 -200.3,-75.6 -387.41,-128.44 -599.71,-188.72 -174.66,-49.6 -520.96,-59.06 -654.68,-138.86l-1108.18 2.69 -194.86 50.77c-462.13,63.2 -817.15,165.06 -1253.19,326.18 -849.83,314.01 -1304.89,702.38 -1894.28,1230.75 -211,189.16 -867.86,1040.07 -911.84,1252.32 -22.82,-312.07 311.18,-1041.47 432.85,-1256.19 362.97,-858.56 1413.13,-1518.92 2200.57,-1935.56 920.06,-486.8 1882.9,-925.04 2046.08,-2090.82 72.37,-517.03 27.91,-5231.32 27.91,-6161.61 0,-651.39 35.72,-1410.23 -4.5,-2048.42l-5467.97 0.95 -3.07 16946.94z"/>
   <path class="fil0" d="M14061.6 14292.38c47.04,-103.24 193.5,-302.98 279.82,-401.56l986.14 3321.82c157.49,552.24 313.62,1111.77 479.43,1660.28l496.65 1628.2 -424.06 -2.04 -2877.06 3.83c-280.68,-1140.66 -433,-2336.55 -213.93,-3543.96 99.92,-550.66 267.23,-1043.09 486.53,-1487.87 113.79,-230.78 661.21,-1089.61 786.49,-1178.7zm-5326.88 10863.14l9.89 24.94 6634.95 -16.59c-52.32,-75.34 -135.91,-154.7 -196.7,-232.5 -66.23,-84.76 -109.08,-131.59 -175.36,-218.49 -110.95,-145.47 -218.49,-295.43 -331.76,-456.69 -593.12,-844.48 -1272.76,-2193.7 -1530.98,-3213.51l422.23 4.08 2510.27 -1.46c536.6,-3.26 384.9,-63.48 556.58,380.65 234.53,606.72 623.81,1302.06 1011.71,1803.46 246.11,318.14 266.6,326.79 529.43,596.93 78.26,80.44 190.19,211.62 277.46,285.18 290.61,244.99 642.28,505.74 995.97,694.19 255.71,136.24 498.72,234.79 796.53,329.3 436.23,138.44 726.92,131.63 905.62,183.64l745.25 1.42c658.81,-181.38 938.39,-54.18 1828,-553.16 500.05,-280.49 997.82,-700.29 1270.12,-1133.24l-161.54 -196.12c-101.69,-53.04 -125.78,-127.02 -213.92,-191.19 -83.04,73.9 -141.25,115.78 -228.44,189.55 -202.52,171.62 -645.08,343.41 -1001.3,261.74 -788.39,-97.36 -1159.92,-909.35 -1425.3,-1632.21 -797.53,-2172.38 -1336.21,-4717 -2072.02,-6966.43 -767.39,-2346 -2257.29,-3858.76 -4328.23,-4709.75 -559.34,-229.84 -1183.06,-393.09 -1795.6,-485.22 -110.05,-16.55 -213.56,-29.12 -324.26,-42.91 -59.05,-7.36 -117.74,-10.72 -174.78,-18.87l-143.74 -39.17 -980.59 -18.72 7.11 581.61c858.25,56.8 1140.59,618.37 1462.44,1325.15 140.67,308.92 256.32,671.76 369.86,1009.68 218.11,649.14 219.25,449.85 -142.64,915.47 -470.29,605.07 -745.88,960.52 -1189.46,1597.91 -1044.11,1500.31 -2221.91,3672.68 -2901.15,5404.77 -420.19,1071.48 -1164.59,3407.68 -1015.63,4536.55z"/>
   <polygon class="fil1" points="469.13,16965.42 472.21,18.48 -0,17.49 0.04,16967.81 "/>
   <path class="fil1" d="M11188.55 12520.02l-175.41 37.9c609,76.67 867.65,-89.43 1253.38,-375 403.82,-298.96 557.53,-876.05 666.77,-1026.2 352.61,743.47 382.3,798.43 648.5,1607.86 147.78,449.35 185.92,429.41 38.76,603.36 -609.61,720.54 -1493.61,1944.41 -1980.64,2750.02 -96.97,160.4 -312.35,549.31 -419.8,671.48 -34.3,80.62 -55.81,140.86 -112.86,186.67l-924.81 1737.92c-717.27,1428.91 -1954.66,4487.6 -1861.16,5999.1l-7.1 443.78 420.56 -1.38c-148.96,-1128.88 595.44,-3465.07 1015.63,-4536.55 679.24,-1732.09 1857.04,-3904.46 2901.15,-5404.77 443.59,-637.4 719.17,-992.84 1189.46,-1597.91 361.9,-465.62 360.76,-266.34 142.64,-915.47 -113.54,-337.92 -229.19,-700.76 -369.86,-1009.68 -321.85,-706.79 -604.19,-1268.35 -1462.44,-1325.15l-7.11 -581.61 -421.9 -3.48 6.57 585.18c597.2,39.51 530.53,153.82 808.12,286.33 -31.21,870.48 -662.26,1678.51 -1348.43,1867.62z"/>
   <path class="fil2" d="M23388.72 23697.65l180.56 -54.6c-773.55,-413.82 -942.6,-900.44 -1260.33,-1782.43 -274.01,-760.63 -488.9,-1528.87 -719.45,-2320.72 -590.16,-2026.91 -1183.15,-5093.1 -2405.41,-6689.9 -476.57,-622.61 -862.92,-1024.68 -1512.79,-1528.14 -530.77,-411.21 -1244.37,-781.23 -1993.1,-1047.61 -611.82,-217.67 -1845.81,-504.28 -2553.42,-471.16l143.74 39.17c57.04,8.15 115.74,11.51 174.78,18.87 110.71,13.79 214.22,26.35 324.26,42.91 612.53,92.14 1236.26,255.39 1795.6,485.22 2070.94,850.99 3560.84,2363.75 4328.23,4709.75 735.81,2249.44 1274.49,4794.06 2072.02,6966.43 265.38,722.86 636.92,1534.85 1425.3,1632.21z"/>
   <path class="fil2" d="M1670.12 12253.94c176,-130.73 339.22,-312.21 541.57,-468.08 167.45,-128.99 419.38,-298.5 609.5,-414.49 245.65,-436.93 1965.85,-1276.08 2270.55,-1464.51 1091.85,-675.22 1321.86,-1130.32 1321.78,-2434.91 -0.04,-594.41 34.89,-7074.7 -10.3,-7471.95l-463.04 17.53c40.23,638.19 4.5,1397.03 4.5,2048.42 0,930.29 44.46,5644.58 -27.91,6161.61 -163.19,1165.78 -1126.02,1604.02 -2046.08,2090.82 -787.44,416.64 -1837.59,1077.01 -2200.57,1935.56z"/>
   <path class="fil1" d="M14061.6 14292.38l108.84 413.31c91.93,139.75 739.35,2540.18 853.71,2922.88l855.42 2870.5 424.06 2.04 -496.65 -1628.2c-165.81,-548.52 -321.94,-1108.05 -479.43,-1660.28l-986.14 -3321.82c-86.32,98.59 -232.78,298.33 -279.82,401.56z"/>
   <path class="fil2" d="M13002.51 20502.91l413.74 -0.85c-86.04,-563.74 -195.41,-756.76 -268.06,-1536.58 -155.4,-1668.01 115.89,-2965.46 1022.25,-4259.79l-108.84 -413.31c-125.27,89.1 -672.7,947.92 -786.49,1178.7 -219.3,444.78 -386.61,937.21 -486.53,1487.87 -219.07,1207.41 -66.75,2403.3 213.93,3543.96z"/>
   <path class="fil1" d="M17217.78 23252.62c17.81,10.22 0.16,-13.44 54.6,40.96l122.92 158.47c70.78,79.65 106.46,134.17 169.16,197.3 351.84,354.32 404.17,409.55 795.69,724 704.58,565.9 1752.74,980.78 2790.41,945.31 -178.7,-52.01 -469.4,-45.2 -905.62,-183.64 -297.81,-94.51 -540.81,-193.06 -796.53,-329.3 -353.69,-188.45 -705.36,-449.2 -995.97,-694.19 -87.27,-73.56 -199.21,-204.74 -277.46,-285.18 -262.83,-270.14 -283.32,-278.79 -529.43,-596.93 -387.9,-501.4 -777.18,-1196.74 -1011.71,-1803.46 -171.68,-444.13 -19.98,-383.91 -556.58,-380.65 103.56,368.04 326.48,862.56 498.05,1170.99 106.37,191.21 197.9,356.5 311.6,533.08 67.84,105.35 287.81,394.92 330.88,503.24z"/>
   <path class="fil2" d="M15379.56 25163.88l406.32 4.25c-44.34,-91.71 5.87,-4.84 -52.91,-80.75l-127.69 -156.06c-243.49,-310.42 -1069.62,-1410.35 -1086.43,-1655.04 -5.88,-5.17 -12.8,-12.75 -16.32,-16.91 -3.48,-4.11 -11.56,-12.03 -15.64,-17.17 -53.87,-67.67 8.44,17.39 -26.98,-35.86l-236.17 -469.67c-237.56,-475.57 -512.17,-1186.64 -656.74,-1689.91l-422.23 -4.08c258.22,1019.81 937.86,2369.03 1530.98,3213.51 113.27,161.26 220.81,311.22 331.76,456.69 66.28,86.9 109.13,133.73 175.36,218.49 60.79,77.8 144.38,157.16 196.7,232.5z"/>
   <path class="fil1" d="M2999.26 14495.81c541.7,110 991.57,508.64 1302.74,763.67 203.02,166.38 354.92,321.81 559.35,481.81 197.47,154.57 358.59,287.13 576.32,437.25 724.1,499.28 2007.68,1033.86 3157.69,954.76 -84.59,-41.65 -742.67,-117.8 -914.56,-155.28 -1528.74,-333.22 -2269.37,-1256.15 -3247.69,-1991.22 -363.99,-273.49 -884.35,-621.07 -1514.19,-510.18l80.34 19.2z"/>
   <path class="fil2" d="M1095.97 16964.89l468.88 2.69c-36.42,-937.54 211.27,-1937.5 1078.17,-2328.44l336.15 -128.99c3.74,-10.36 13.89,-8.93 20.09,-14.33l-80.34 -19.2c-1338.81,59.05 -1878.6,1108.53 -1822.95,2488.28z"/>
   <path class="fil1" d="M2821.19 11371.37c-190.12,115.99 -442.05,285.51 -609.5,414.49 -202.35,155.88 -365.57,337.35 -541.57,468.08 -121.68,214.73 -455.67,944.13 -432.85,1256.19 43.98,-212.26 700.84,-1063.17 911.84,-1252.32 589.4,-528.37 1044.46,-916.74 1894.28,-1230.75 436.04,-161.12 791.05,-262.98 1253.19,-326.18l194.86 -50.77c-390.19,-32.48 -1102.92,112.11 -1463.45,221.43 -219.85,66.66 -417.62,136.88 -621.73,222.07 -201.9,84.27 -409.24,214.23 -585.07,277.75z"/>
   <path class="fil2" d="M11013.14 12557.92l175.41 -37.9c-62.49,-61.92 -372.09,-179.49 -529.3,-268.48 -1182.36,-669.28 -2543.48,-1690.57 -4059.63,-1604.12 133.72,79.8 480.03,89.26 654.68,138.86 212.29,60.28 399.41,113.12 599.71,188.72 385.5,145.51 715.49,333.72 1059.49,516.57 440.72,234.28 1573.8,1050.2 2099.64,1066.34z"/>
   <path class="fil2" d="M24832.39 23437.56l161.54 196.12c-272.3,432.95 -770.07,852.76 -1270.12,1133.24 -889.61,498.98 -1169.19,371.78 -1828,553.16 1345.86,37.21 2861.36,-635.46 3520.63,-1686.4 -72.46,-131.99 -156.91,-146.47 -279.89,-293.66l-56.05 -95.88c-93.45,29.64 -195.68,126.01 -248.11,193.42z"/>
   <path class="fil1" d="M23569.28 23643.05l-180.56 54.6c356.22,81.67 798.79,-90.12 1001.3,-261.74l-193.91 -189.51c-160.19,143.17 -339.52,307.68 -626.84,396.65z"/>
   <path class="fil2" d="M9829.03 17135.71c443.55,20.46 862.77,-84.02 1278.21,-159.61 57.06,-45.8 78.57,-106.05 112.86,-186.67 -230.07,69.41 -417.22,141.62 -674.83,204.64l-716.24 141.64z"/>
   <path class="fil3" d="M8744.61 25180.46l-9.89 -24.94 -420.56 1.38 7.1 -443.78c-57.88,100.82 -49.94,328.82 -20.7,467.87l444.04 -0.53z"/>
  </g>
 </g>
</svg>
